# Blender v2.78 (sub 0) OBJ File: 'jzKWYDI2atULqRHH_temp.blend'
# www.blender.org
mtllib jzKWYDI2atULqRHH.mtl
o _STL_BINARY_
v 0.000000 13.545038 -12.410100
v 0.000000 12.488738 -12.500001
v -50.000000 12.488738 0.000000
v 0.000000 10.376240 -12.320199
v 0.000000 9.350358 -12.053086
v 0.000000 11.432438 -12.410100
v 0.000000 8.324489 -11.785969
v 0.000000 7.358519 -11.349319
v 0.000000 6.392548 -10.912682
v 0.000000 4.635988 -9.725452
v 0.000000 3.870659 -8.991940
v 0.000000 5.514268 -10.319059
v 0.000000 3.105338 -8.258430
v 0.000000 2.474977 -7.406141
v 0.000000 1.844627 -6.553841
v 0.000000 0.890123 -4.660710
v 0.000000 0.579711 -3.647101
v 0.000000 1.367378 -5.607270
v 0.000000 0.269298 -2.633491
v 0.000000 0.134648 -1.582002
v 0.000000 0.000000 -0.530500
v 0.000000 0.089981 1.587699
v 0.000000 0.313316 2.624000
v 0.000000 0.044989 0.528600
v 0.000000 0.536654 3.660300
v 0.000000 0.931909 4.643900
v 0.000000 1.327167 5.627499
v 0.000000 2.438777 7.432899
v 0.000000 3.139136 8.228700
v 0.000000 1.882968 6.530200
v 0.000000 3.839498 9.024500
v 0.000000 4.664277 9.690398
v 0.000000 5.489047 10.356400
v 0.000000 7.339967 11.390400
v 0.000000 8.339487 11.743500
v 0.000000 6.414507 10.873402
v 0.000000 9.339006 12.096702
v 0.000000 10.383839 12.275802
v 0.000000 11.428638 12.455003
v 0.000000 13.548838 12.455003
v 0.000000 14.593637 12.275802
v 0.000000 12.488738 12.500001
v 0.000000 15.638438 12.096702
v 0.000000 16.637938 11.743500
v 0.000000 17.637537 11.390400
v 0.000000 19.488438 10.356400
v 0.000000 20.313238 9.690399
v 0.000000 18.562939 10.873402
v 0.000000 21.137936 9.024502
v 0.000000 21.838337 8.228701
v 0.000000 22.538738 7.432900
v 0.000000 23.650337 5.627501
v 0.000000 24.045536 4.643900
v 0.000000 23.094540 6.530201
v 0.000000 24.440838 3.660300
v 0.000000 24.664139 2.624002
v 0.000000 24.887539 1.587701
v 0.000000 24.977438 -0.530500
v 0.000000 24.842838 -1.582000
v 0.000000 24.932438 0.528600
v 0.000000 24.708139 -2.633490
v 0.000000 24.397739 -3.647099
v 0.000000 24.087337 -4.660709
v 0.000000 23.132839 -6.553840
v 0.000000 22.502537 -7.406140
v 0.000000 23.610138 -5.607269
v 0.000000 21.872139 -8.258430
v 0.000000 21.106838 -8.991940
v 0.000000 20.341440 -9.725450
v 0.000000 18.584940 -10.912682
v 0.000000 17.618938 -11.349319
v 0.000000 19.463240 -10.319060
v 0.000000 16.652939 -11.785969
v 0.000000 15.627140 -12.053086
v 0.000000 14.601238 -12.320199
v 50.000000 10.376238 12.320199
v 50.000000 12.488738 12.500001
v 50.000000 8.324488 11.786001
v 50.000000 6.392546 10.912701
v 50.000000 4.635988 9.725398
v 50.000000 3.105337 8.258399
v 50.000000 1.844627 6.553800
v 50.000000 0.890123 4.660700
v 50.000000 0.269298 2.633500
v 50.000000 0.000000 0.530500
v 50.000000 0.089981 -1.587701
v 50.000000 0.536654 -3.660281
v 50.000000 1.327167 -5.627551
v 50.000000 2.438777 -7.432911
v 50.000000 3.839499 -9.024450
v 50.000000 5.489048 -10.356369
v 50.000000 7.339969 -11.390360
v 50.000000 9.339008 -12.096663
v 50.000000 11.428638 -12.454970
v 50.000000 13.548838 -12.454970
v 50.000000 15.638438 -12.096663
v 50.000000 17.637539 -11.390360
v 50.000000 19.488440 -10.356370
v 50.000000 21.137939 -9.024449
v 50.000000 22.538738 -7.432910
v 50.000000 23.650337 -5.627549
v 50.000000 24.440838 -3.660280
v 50.000000 24.887539 -1.587699
v 50.000000 24.977438 0.530500
v 50.000000 24.708139 2.633500
v 50.000000 24.087337 4.660702
v 50.000000 23.132839 6.553801
v 50.000000 21.872137 8.258400
v 50.000000 20.341438 9.725399
v 50.000000 18.584938 10.912701
v 50.000000 16.652937 11.786001
v 50.000000 14.601236 12.320199
v 50.000000 12.488738 0.000000
vn -0.2427 0.0274 -0.9697
vn -0.2427 -0.2178 -0.9453
vn -0.2427 -0.1368 -0.9604
vn -0.2427 -0.0549 -0.9685
vn -0.2427 -0.3744 -0.8949
vn -0.2427 -0.4490 -0.8600
vn -0.2427 -0.2972 -0.9235
vn -0.2427 -0.6512 -0.7191
vn -0.2427 -0.5878 -0.7717
vn -0.2427 -0.5203 -0.8188
vn -0.2427 -0.7633 -0.5987
vn -0.2427 -0.8113 -0.5318
vn -0.2427 -0.7098 -0.6613
vn -0.2427 -0.9192 -0.3102
vn -0.2427 -0.8895 -0.3870
vn -0.2427 -0.8535 -0.4611
vn -0.2427 -0.9584 -0.1504
vn -0.2427 -0.9677 -0.0686
vn -0.2427 -0.9422 -0.2311
vn -0.2427 -0.9537 0.1775
vn -0.2427 -0.9653 0.0960
vn -0.2427 -0.9700 0.0137
vn -0.2427 -0.9100 0.3361
vn -0.2427 -0.8782 0.4121
vn -0.2427 -0.9352 0.2577
vn -0.2427 -0.7461 0.6200
vn -0.2427 -0.7960 0.5546
vn -0.2427 -0.8401 0.4850
vn -0.2427 -0.6305 0.7372
vn -0.2427 -0.5657 0.7881
vn -0.2427 -0.6908 0.6811
vn -0.2427 -0.3489 0.9052
vn -0.2427 -0.4244 0.8723
vn -0.2427 -0.4969 0.8332
vn -0.2427 -0.1909 0.9511
vn -0.2427 -0.1096 0.9639
vn -0.2427 -0.2709 0.9315
vn -0.2427 0.1368 0.9604
vn -0.2427 0.0549 0.9685
vn -0.2427 -0.0274 0.9697
vn -0.2427 0.2972 0.9235
vn -0.2427 0.3744 0.8949
vn -0.2427 0.2178 0.9453
vn -0.2427 0.5879 0.7717
vn -0.2427 0.5203 0.8188
vn -0.2427 0.4489 0.8600
vn -0.2427 0.7098 0.6613
vn -0.2427 0.7633 0.5987
vn -0.2427 0.6512 0.7191
vn -0.2427 0.8895 0.3870
vn -0.2427 0.8535 0.4611
vn -0.2427 0.8114 0.5318
vn -0.2427 0.9422 0.2311
vn -0.2427 0.9584 0.1504
vn -0.2427 0.9192 0.3102
vn -0.2427 0.9653 -0.0960
vn -0.2427 0.9700 -0.0137
vn -0.2427 0.9677 0.0686
vn -0.2427 0.9352 -0.2577
vn -0.2427 0.9100 -0.3361
vn -0.2427 0.9537 -0.1775
vn -0.2427 0.7960 -0.5546
vn -0.2427 0.8401 -0.4850
vn -0.2427 0.8782 -0.4121
vn -0.2427 0.6908 -0.6811
vn -0.2427 0.6305 -0.7372
vn -0.2427 0.7461 -0.6201
vn -0.2427 0.7461 -0.6200
vn -0.2427 0.4244 -0.8723
vn -0.2427 0.4969 -0.8332
vn -0.2427 0.5657 -0.7881
vn -0.2427 0.2709 -0.9315
vn -0.2427 0.1909 -0.9511
vn -0.2427 0.3489 -0.9052
vn -0.2427 0.1096 -0.9639
vn 0.0000 -0.0848 0.9964
vn 0.0000 -0.1410 0.9900
vn 0.0000 -0.1968 0.9804
vn 0.0002 -0.2520 0.9677
vn -0.0000 -0.3064 0.9519
vn -0.0000 -0.3597 0.9331
vn -0.0000 -0.4119 0.9112
vn 0.0000 -0.4628 0.8865
vn -0.0000 -0.5122 0.8589
vn 0.0000 -0.5600 0.8285
vn 0.0000 -0.6060 0.7955
vn 0.0000 -0.6500 0.7600
vn -0.0001 -0.6919 0.7220
vn 0.0000 -0.7317 0.6816
vn -0.0000 -0.7691 0.6392
vn -0.0000 -0.8040 0.5946
vn 0.0000 -0.8363 0.5482
vn -0.0000 -0.8660 0.5000
vn 0.0000 -0.8929 0.4502
vn -0.0000 -0.9170 0.3989
vn 0.0000 -0.9381 0.3464
vn 0.0000 -0.9562 0.2928
vn 0.0000 -0.9712 0.2383
vn -0.0000 -0.9831 0.1830
vn 0.0001 -0.9919 0.1270
vn -0.0000 -0.9975 0.0707
vn 0.0000 -0.9999 0.0141
vn 0.0000 -0.9991 -0.0424
vn 0.0000 -0.9951 -0.0989
vn -0.0000 -0.9879 -0.1550
vn -0.0000 -0.9776 -0.2107
vn 0.0000 -0.9641 -0.2656
vn 0.0000 -0.9475 -0.3198
vn 0.0000 -0.9279 -0.3729
vn 0.0000 -0.9053 -0.4247
vn 0.0000 -0.8798 -0.4753
vn -0.0000 -0.8515 -0.5243
vn -0.0000 -0.8205 -0.5717
vn -0.0000 -0.7869 -0.6171
vn 0.0002 -0.7507 -0.6607
vn -0.0000 -0.7121 -0.7021
vn 0.0000 -0.6712 -0.7413
vn 0.0002 -0.6282 -0.7780
vn 0.0000 -0.5832 -0.8123
vn 0.0000 -0.5363 -0.8440
vn 0.0001 -0.4877 -0.8730
vn 0.0000 -0.4375 -0.8992
vn 0.0000 -0.3859 -0.9225
vn 0.0000 -0.3331 -0.9429
vn 0.0000 -0.2793 -0.9602
vn -0.0000 -0.2245 -0.9745
vn 0.0000 -0.1690 -0.9856
vn -0.0000 -0.1129 -0.9936
vn -0.0000 -0.0566 -0.9984
vn -0.0000 -0.0000 -1.0000
vn -0.0000 0.0566 -0.9984
vn -0.0000 0.1129 -0.9936
vn 0.0000 0.1690 -0.9856
vn -0.0000 0.2245 -0.9745
vn -0.0000 0.2792 -0.9602
vn 0.0000 0.3331 -0.9429
vn -0.0000 0.3860 -0.9225
vn -0.0000 0.4375 -0.8992
vn 0.0000 0.4877 -0.8730
vn -0.0000 0.5363 -0.8440
vn -0.0000 0.5832 -0.8123
vn 0.0000 0.6282 -0.7780
vn -0.0000 0.6713 -0.7412
vn -0.0000 0.7121 -0.7021
vn -0.0001 0.7507 -0.6607
vn -0.0000 0.7868 -0.6171
vn -0.0000 0.8205 -0.5716
vn -0.0001 0.8515 -0.5243
vn -0.0000 0.8798 -0.4753
vn -0.0000 0.9053 -0.4248
vn 0.0001 0.9279 -0.3729
vn -0.0000 0.9475 -0.3198
vn -0.0000 0.9641 -0.2657
vn 0.0001 0.9776 -0.2107
vn 0.0000 0.9879 -0.1550
vn -0.0000 0.9951 -0.0989
vn 0.0001 0.9991 -0.0424
vn 0.0000 0.9999 0.0142
vn 0.0000 0.9975 0.0707
vn 0.0000 0.9919 0.1270
vn -0.0000 0.9831 0.1829
vn 0.0000 0.9712 0.2382
vn -0.0000 0.9562 0.2928
vn 0.0000 0.9381 0.3464
vn 0.0000 0.9170 0.3989
vn -0.0001 0.8929 0.4502
vn -0.0000 0.8660 0.5000
vn 0.0000 0.8363 0.5482
vn -0.0000 0.8040 0.5946
vn 0.0000 0.7691 0.6392
vn -0.0000 0.7317 0.6816
vn -0.0000 0.6919 0.7220
vn 0.0000 0.6500 0.7599
vn 0.0000 0.6060 0.7955
vn 0.0001 0.5600 0.8285
vn 0.0000 0.5122 0.8589
vn 0.0000 0.4628 0.8865
vn 0.0001 0.4119 0.9112
vn 0.0000 0.3597 0.9331
vn 0.0000 0.3063 0.9519
vn 0.0001 0.2520 0.9677
vn 0.0000 0.1968 0.9804
vn 0.0000 0.1410 0.9900
vn 0.0000 0.0848 0.9964
vn 0.0000 0.0283 0.9996
vn 0.0000 -0.0283 0.9996
vn 1.0000 0.0000 0.0000
usemtl DefaultMaterial
s 1
f 1//1 2//1 3//1
f 3//2 4//2 5//2
f 6//3 4//3 3//3
f 2//4 6//4 3//4
f 3//5 7//5 8//5
f 9//6 3//6 8//6
f 5//7 7//7 3//7
f 3//8 10//8 11//8
f 12//9 10//9 3//9
f 9//10 12//10 3//10
f 3//11 13//11 14//11
f 15//12 3//12 14//12
f 11//13 13//13 3//13
f 3//14 16//14 17//14
f 18//15 16//15 3//15
f 15//16 18//16 3//16
f 3//17 19//17 20//17
f 21//18 3//18 20//18
f 17//19 19//19 3//19
f 3//20 22//20 23//20
f 24//21 22//21 3//21
f 21//22 24//22 3//22
f 3//23 25//23 26//23
f 27//24 3//24 26//24
f 23//25 25//25 3//25
f 3//26 28//26 29//26
f 30//27 28//27 3//27
f 27//28 30//28 3//28
f 3//29 31//29 32//29
f 33//30 3//30 32//30
f 29//31 31//31 3//31
f 3//32 34//32 35//32
f 36//33 34//33 3//33
f 33//34 36//34 3//34
f 3//35 37//35 38//35
f 39//36 3//36 38//36
f 35//37 37//37 3//37
f 3//38 40//38 41//38
f 42//39 40//39 3//39
f 39//40 42//40 3//40
f 3//41 43//41 44//41
f 45//42 3//42 44//42
f 41//43 43//43 3//43
f 3//44 46//44 47//44
f 48//45 46//45 3//45
f 45//46 48//46 3//46
f 3//47 49//47 50//47
f 51//48 3//48 50//48
f 47//49 49//49 3//49
f 3//50 52//50 53//50
f 54//51 52//51 3//51
f 51//52 54//52 3//52
f 3//53 55//53 56//53
f 57//54 3//54 56//54
f 53//55 55//55 3//55
f 3//56 58//56 59//56
f 60//57 58//57 3//57
f 57//58 60//58 3//58
f 3//59 61//59 62//59
f 63//60 3//60 62//60
f 59//61 61//61 3//61
f 3//62 64//62 65//62
f 66//63 64//63 3//63
f 63//64 66//64 3//64
f 3//65 67//65 68//65
f 69//66 3//66 68//66
f 65//67 67//67 3//68
f 3//69 70//69 71//69
f 72//70 70//70 3//70
f 69//71 72//71 3//71
f 3//72 73//72 74//72
f 75//73 3//73 74//73
f 71//74 73//74 3//74
f 75//75 1//75 3//75
f 76//76 77//76 39//76
f 39//77 38//77 76//77
f 76//78 38//78 37//78
f 76//79 37//79 78//79
f 37//80 35//80 78//80
f 78//81 35//81 34//81
f 78//82 34//82 79//82
f 34//83 36//83 79//83
f 79//84 36//84 33//84
f 79//85 33//85 80//85
f 33//86 32//86 80//86
f 80//87 32//87 31//87
f 80//88 31//88 81//88
f 31//89 29//89 81//89
f 81//90 29//90 28//90
f 81//91 28//91 82//91
f 28//92 30//92 82//92
f 82//93 30//93 27//93
f 82//94 27//94 83//94
f 27//95 26//95 83//95
f 83//96 26//96 25//96
f 83//97 25//97 84//97
f 25//98 23//98 84//98
f 84//99 23//99 22//99
f 84//100 22//100 85//100
f 22//101 24//101 85//101
f 85//102 24//102 21//102
f 85//103 21//103 86//103
f 21//104 20//104 86//104
f 86//105 20//105 19//105
f 86//106 19//106 87//106
f 19//107 17//107 87//107
f 87//108 17//108 16//108
f 87//109 16//109 88//109
f 16//110 18//110 88//110
f 88//111 18//111 15//111
f 88//112 15//112 89//112
f 15//113 14//113 89//113
f 89//114 14//114 13//114
f 89//115 13//115 90//115
f 13//116 11//116 90//116
f 90//117 11//117 10//117
f 90//118 10//118 91//118
f 10//119 12//119 91//119
f 91//120 12//120 9//120
f 91//121 9//121 92//121
f 9//122 8//122 92//122
f 92//123 8//123 7//123
f 92//124 7//124 93//124
f 7//125 5//125 93//125
f 93//126 5//126 4//126
f 93//127 4//127 94//127
f 4//128 6//128 94//128
f 94//129 6//129 2//129
f 94//130 2//130 95//130
f 2//131 1//131 95//131
f 95//132 1//132 75//132
f 95//133 75//133 96//133
f 75//134 74//134 96//134
f 96//135 74//135 73//135
f 96//136 73//136 97//136
f 73//137 71//137 97//137
f 97//138 71//138 70//138
f 97//139 70//139 98//139
f 70//140 72//140 98//140
f 98//141 72//141 69//141
f 98//142 69//142 99//142
f 69//143 68//143 99//143
f 99//144 68//144 67//144
f 99//145 67//145 100//145
f 67//146 65//146 100//146
f 100//147 65//147 64//147
f 100//148 64//148 101//148
f 64//149 66//149 101//149
f 101//150 66//150 63//150
f 101//151 63//151 102//151
f 63//152 62//152 102//152
f 102//153 62//153 61//153
f 102//154 61//154 103//154
f 61//155 59//155 103//155
f 103//156 59//156 58//156
f 103//157 58//157 104//157
f 58//158 60//158 104//158
f 104//159 60//159 57//159
f 104//160 57//160 105//160
f 57//161 56//161 105//161
f 105//162 56//162 55//162
f 105//163 55//163 106//163
f 55//164 53//164 106//164
f 106//165 53//165 52//165
f 106//166 52//166 107//166
f 52//167 54//167 107//167
f 107//168 54//168 51//168
f 107//169 51//169 108//169
f 51//170 50//170 108//170
f 108//171 50//171 49//171
f 108//172 49//172 109//172
f 49//173 47//173 109//173
f 109//174 47//174 46//174
f 109//175 46//175 110//175
f 46//176 48//176 110//176
f 110//177 48//177 45//177
f 110//178 45//178 111//178
f 45//179 44//179 111//179
f 111//180 44//180 43//180
f 111//181 43//181 112//181
f 43//182 41//182 112//182
f 112//183 41//183 40//183
f 112//184 40//184 77//184
f 77//185 40//185 42//185
f 77//186 42//186 39//186
f 77//187 76//187 113//187
f 113//187 112//187 77//187
f 76//187 78//187 113//187
f 113//187 78//187 79//187
f 113//187 79//187 80//187
f 80//187 81//187 113//187
f 113//187 81//187 82//187
f 113//187 82//187 83//187
f 83//187 84//187 113//187
f 113//187 84//187 85//187
f 113//187 85//187 86//187
f 86//187 87//187 113//187
f 113//187 87//187 88//187
f 113//187 88//187 89//187
f 89//187 90//187 113//187
f 113//187 90//187 91//187
f 113//187 91//187 92//187
f 92//187 93//187 113//187
f 113//187 93//187 94//187
f 113//187 94//187 95//187
f 95//187 96//187 113//187
f 113//187 96//187 97//187
f 113//187 97//187 98//187
f 98//187 99//187 113//187
f 113//187 99//187 100//187
f 113//187 100//187 101//187
f 101//187 102//187 113//187
f 113//187 102//187 103//187
f 113//187 103//187 104//187
f 104//187 105//187 113//187
f 113//187 105//187 106//187
f 113//187 106//187 107//187
f 107//187 108//187 113//187
f 113//187 108//187 109//187
f 113//187 109//187 110//187
f 110//187 111//187 113//187
f 113//187 111//187 112//187
